<svg xmlns="http://www.w3.org/2000/svg" width="1024" height="1024" viewBox="0 0 1024 1024"><defs><linearGradient id="brand" gradientUnits="userSpaceOnUse" x1="2" y1="2" x2="62" y2="62"><stop offset="0" stop-color="#3578ef"/><stop offset="0.125" stop-color="#32cbd1"/><stop offset="0.25" stop-color="#83d9b2"/><stop offset="0.375" stop-color="#bed965"/><stop offset="0.5" stop-color="#efc254"/><stop offset="0.625" stop-color="#f28b60"/><stop offset="0.75" stop-color="#e96399"/><stop offset="0.875" stop-color="#c476da"/><stop offset="1" stop-color="#8a78ed"/></linearGradient><filter id="shadow" x="-10%" y="-10%" width="120%" height="130%"><feGaussianBlur in="SourceAlpha" stdDeviation="14"/><feOffset dy="10"/><feComponentTransfer><feFuncA type="linear" slope="0.22"/></feComponentTransfer><feMerge><feMergeNode/><feMergeNode in="SourceGraphic"/></feMerge></filter></defs><rect x="100" y="100" width="824" height="824" rx="185" fill="#fff" stroke="#e3e7ed" stroke-width="2" filter="url(#shadow)"/><g transform="translate(232 232) scale(8.75)"><path d="M2 2L62 2L62 32L2 32ZM62 32L62 62L32 62L32 32M32 62L2 62L2 47L32 47M17 32L17 47M2 47L2 32M32 39.5L17 39.5M24.5 47L24.5 39.5M17 43.25L24.5 43.25M20.75 39.5L20.75 43.25" fill="none" stroke="url(#brand)" stroke-width="1.5"/></g></svg>